21 JUMP STREET.m2ts
Format : BDAV
Format/Info : Blu-ray Video
File size : 3.99 GiB
Duration : 1h 49mn
Overall bit rate mode : Variable
Overall bit rate : 5 211 Kbps
Maximum Overall bit rate : 35.5 Mbps

Video
ID : 4113 (0x1011)
Menu ID : 1 (0x1)
Format : AVC
Format/Info : Advanced Video Codec
Format profile : High@L4.0
Format settings, CABAC : Yes
Format settings, ReFrames : 3 frames
Codec ID : 27
Duration : 1h 49mn
Bit rate mode : Variable
Bit rate : 4 255 Kbps
Maximum bit rate : 25.0 Mbps
Width : 1 920 pixels
Height : 1 080 pixels
Display aspect ratio : 16:9
Frame rate : 23.976 fps
Color space : YUV
Chroma subsampling : 4:2:0
Bit depth : 8 bits
Scan type : Progressive
Bits/(Pixel*Frame) : 0.086
Stream size : 3.34 GiB (84%)
Writing library : x264 core

Audio
ID : 4352 (0x1100)
Menu ID : 1 (0x1)
Format : AC-3
Format/Info : Audio Coding 3
Codec ID : 129
Duration : 1h 49mn
Bit rate : 640 Kbps
Channel(s) : 5 channels
Sampling rate : 48.0 KHz
Compression mode : Lossy
Stream size : 502 MiB (12%)


 
http://thepiratebay.se/search/4gb%20m2ts/0/99/0